<svg id="Laag_1" data-name="Laag 1" xmlns="http://www.w3.org/2000/svg" viewBox="0 0 392.87 99.74"><defs><style>.cls-1,.cls-3{fill:#0b45b2;}.cls-2{fill:#5aa1d9;}.cls-3{stroke:#0b45b2;stroke-miterlimit:10;stroke-width:2px;}</style></defs><title>deducate-vector</title><path class="cls-1" d="M116.14,89.55a1.61,1.61,0,0,0-.91-1.44v-9.9a.3.3,0,0,0,.19-.29.31.31,0,0,0-.2-.29l-20.44-7.2a1.13,1.13,0,0,0-.81,0L73.54,77.64a.29.29,0,0,0-.2.28.3.3,0,0,0,.19.29l20.41,7.94a1.21,1.21,0,0,0,.88,0l19-7.4v9.36a1.59,1.59,0,0,0-.91,1.43,1.62,1.62,0,0,0,1,1.49,13.22,13.22,0,0,0-1,4.15,1.61,1.61,0,1,0,3.22,0,13.22,13.22,0,0,0-1-4.15A1.62,1.62,0,0,0,116.14,89.55Z" transform="translate(-31.86 -19.08)"/><path class="cls-1" d="M79.92,82.21c0,2.28,0,5,0,5.4,0,4.25,6.4,7.71,14.45,7.93,8.05-.22,14.45-3.67,14.45-7.93,0-.43,0-3.12,0-5.4l-14,5.45a1.21,1.21,0,0,1-.88,0Z" transform="translate(-31.86 -19.08)"/><path class="cls-1" d="M70.4,55.05h-6a1,1,0,0,0-1,1v6a1,1,0,0,0,.29.7,1,1,0,0,0,.7.3h6a1,1,0,0,0,.7-.3,1,1,0,0,0,.3-.7V56a.93.93,0,0,0-.3-.69A1,1,0,0,0,70.4,55.05Z" transform="translate(-31.86 -19.08)"/><path class="cls-1" d="M78.24,37.15A10.29,10.29,0,0,0,75.6,34,13.38,13.38,0,0,0,72,31.91a11.27,11.27,0,0,0-4-.77A12.74,12.74,0,0,0,56.4,37.76a1,1,0,0,0,.25,1.32l4.09,3.12a1.19,1.19,0,0,0,.62.2,1,1,0,0,0,.77-.4,17.26,17.26,0,0,1,2.67-2.87,4.71,4.71,0,0,1,2.69-.72,4.6,4.6,0,0,1,2.67.8,2.25,2.25,0,0,1,1.16,1.84,2.81,2.81,0,0,1-.62,1.89,6.22,6.22,0,0,1-2.09,1.4A10.49,10.49,0,0,0,65,47a5.84,5.84,0,0,0-1.61,3.9v1.12a1.8,1.8,0,0,0,.26.93.73.73,0,0,0,.63.46h6a.88.88,0,0,0,.7-.38,1.31,1.31,0,0,0,.3-.81A3.34,3.34,0,0,1,72,50.59,4.89,4.89,0,0,1,73.69,49c.64-.36,1.15-.66,1.52-.88A14,14,0,0,0,76.64,47,7.37,7.37,0,0,0,78,45.52a8.28,8.28,0,0,0,.87-1.9,7.92,7.92,0,0,0,.39-2.52A8.2,8.2,0,0,0,78.24,37.15Z" transform="translate(-31.86 -19.08)"/><path class="cls-2" d="M147.83,98.09V32h12.35a14,14,0,0,1,9.37,3.63,24,24,0,0,1,6.59,10.2,43.7,43.7,0,0,1,2.45,14.69v8.58A44.23,44.23,0,0,1,176.24,84a24.31,24.31,0,0,1-6.54,10.36,14,14,0,0,1-9.37,3.77Zm1.66-63.67V95.64h10.69a12.6,12.6,0,0,0,8.53-3.39,22.29,22.29,0,0,0,6-9.44,40.14,40.14,0,0,0,2.2-13.47V60.85a40.45,40.45,0,0,0-2.12-13.44,22.53,22.53,0,0,0-5.95-9.47,12.7,12.7,0,0,0-8.44-3.52Z" transform="translate(-31.86 -19.08)"/><path class="cls-2" d="M209.82,65.3H187.46V95.64H213v2.45H185.81V32H213v2.45H187.46V62.85h22.36Z" transform="translate(-31.86 -19.08)"/><path class="cls-2" d="M218.45,98.09V32h12.34a14,14,0,0,1,9.38,3.63,23.92,23.92,0,0,1,6.58,10.2,43.45,43.45,0,0,1,2.45,14.69v8.58A44.48,44.48,0,0,1,246.86,84a24.31,24.31,0,0,1-6.54,10.36A14,14,0,0,1,231,98.09Zm1.65-63.67V95.64h10.69a12.58,12.58,0,0,0,8.53-3.39,22.19,22.19,0,0,0,6-9.44,40.13,40.13,0,0,0,2.21-13.47V60.85a40.19,40.19,0,0,0-2.13-13.44,22.51,22.51,0,0,0-5.94-9.47A12.72,12.72,0,0,0,231,34.42Z" transform="translate(-31.86 -19.08)"/><path class="cls-2" d="M286.44,32V76.74q0,10.5-4.1,16.38a13.45,13.45,0,0,1-22.24,0Q256,87.23,256,76.93V32h1.66V76.65q0,9.18,3.72,14.54a11.78,11.78,0,0,0,19.74,0q3.71-5.37,3.71-14.58V32Z" transform="translate(-31.86 -19.08)"/><path class="cls-2" d="M325.49,77.83q-.64,10.23-4.75,15.69A13.2,13.2,0,0,1,309.59,99a11.7,11.7,0,0,1-8.41-3.57A23.53,23.53,0,0,1,295.5,85.3a51.47,51.47,0,0,1-2.05-15V60.08a52.56,52.56,0,0,1,2-15.1,23.62,23.62,0,0,1,5.68-10.29,11.73,11.73,0,0,1,8.47-3.63,13.26,13.26,0,0,1,11.12,5.45q4.14,5.45,4.78,15.62h-1.66q-.7-9.12-4.29-13.87a11.75,11.75,0,0,0-10-4.75q-6.49,0-10.49,7.27t-4,19.48V70a48.75,48.75,0,0,0,1.78,13.83,21.77,21.77,0,0,0,5.1,9.37,10.4,10.4,0,0,0,7.61,3.36,11.89,11.89,0,0,0,10-4.67q3.6-4.68,4.24-14Z" transform="translate(-31.86 -19.08)"/><path class="cls-2" d="M356.23,78.33H334.39l-5,19.76h-1.81L344.31,32h2L363,98.09h-1.81ZM335,75.88h20.62l-10.29-41Z" transform="translate(-31.86 -19.08)"/><path class="cls-2" d="M392.86,34.42H376.62V98.09H375V34.42H358.73V32h34.13Z" transform="translate(-31.86 -19.08)"/><path class="cls-2" d="M421.61,65.3H399.25V95.64h25.48v2.45H397.59V32h27.14v2.45H399.25V62.85h22.36Z" transform="translate(-31.86 -19.08)"/><path class="cls-3" d="M129.79,82.8c0-13.59-11.91-25-27.82-27.71a22.82,22.82,0,0,0,1-6.69c0-15.59-15.68-28.32-35.07-28.32s-35,12.73-35,28.32c0,7.08,3.08,13.55,8.86,18.81L35.33,82.58l19.39-7.89a51,51,0,0,0,5.93,1.41,23,23,0,0,0-1,6.68c0,15.59,15.67,28.33,35.05,28.33a42,42,0,0,0,13.2-2L127.29,117l-6.39-15.37c5.8-5.24,8.89-11.92,8.89-18.81ZM54.72,70.46,43,75.11l3.71-8.9S37,59.66,37,48.6c0-13.35,13.83-24.29,30.94-24.29S98.87,35.23,99.28,48.38a20.55,20.55,0,0,1-1,6.21c-1.16-.09-2.33-.13-3.52-.13-14.75,0-27.33,7.37-32.52,17.76A54.38,54.38,0,0,1,54.72,70.46Zm53.19,34.42a36.06,36.06,0,0,1-13,2.41C77.82,107.29,64,96.37,64,83S77.82,58.71,94.93,58.71,125.87,69.63,125.87,83c0,11-9.69,17.61-9.69,17.61l3.72,8.9-12-4.63Z" transform="translate(-31.86 -19.08)"/></svg>